<?xml version="1.0" standalone="no"?>
<!DOCTYPE svg PUBLIC "-//W3C//DTD SVG 1.1//EN" "http://www.w3.org/Graphics/SVG/1.1/DTD/svg11.dtd" >
<!--
2013-9-30: Created.
-->
<svg>
<metadata>
Created by iconfont
</metadata>
<defs>

<font id="iconfont" horiz-adv-x="1024" >
  <font-face
    font-family="iconfont"
    font-weight="500"
    font-stretch="normal"
    units-per-em="1024"
    ascent="896"
    descent="-128"
  />
    <missing-glyph />
    
    <glyph glyph-name="x" unicode="x" horiz-adv-x="1001"
d="M281 543q-27 -1 -53 -1h-83q-18 0 -36.5 -6t-32.5 -18.5t-23 -32t-9 -45.5v-76h912v41q0 16 -0.5 30t-0.5 18q0 13 -5 29t-17 29.5t-31.5 22.5t-49.5 9h-133v-97h-438v97zM955 310v-52q0 -23 0.5 -52t0.5 -58t-10.5 -47.5t-26 -30t-33 -16t-31.5 -4.5q-14 -1 -29.5 -0.5
t-29.5 0.5h-32l-45 128h-439l-44 -128h-29h-34q-20 0 -45 1q-25 0 -41 9.5t-25.5 23t-13.5 29.5t-4 30v167h911zM163 247q-12 0 -21 -8.5t-9 -21.5t9 -21.5t21 -8.5q13 0 22 8.5t9 21.5t-9 21.5t-22 8.5zM316 123q-8 -26 -14 -48q-5 -19 -10.5 -37t-7.5 -25t-3 -15t1 -14.5
t9.5 -10.5t21.5 -4h37h67h81h80h64h36q23 0 34 12t2 38q-5 13 -9.5 30.5t-9.5 34.5q-5 19 -11 39h-368zM336 498v228q0 11 2.5 23t10 21.5t20.5 15.5t34 6h188q31 0 51.5 -14.5t20.5 -52.5v-227h-327z" />
    

    
    <glyph glyph-name="danxuan" unicode="&#58898;" d="M511.767709 748.237791c-246.985184 0-447.204252-200.221114-447.204252-447.201182 0-246.987231 200.219067-447.208345 447.204252-447.208345 246.984161 0 447.206298 200.221114 447.206298 447.208345C958.972984 548.016677 758.75187 748.237791 511.767709 748.237791zM511.767709-90.270565c-216.111013 0-391.304104 175.191044-391.304104 391.30615 0 216.108966 175.193091 391.300011 391.304104 391.300011 216.112036 0 391.305127-175.191044 391.305127-391.300011C903.072837 84.92048 727.879746-90.270565 511.767709-90.270565zM708.164728 494.780195c-13.368472 7.714705-30.461779 3.134387-38.180578-10.229992l-178.751127-309.608453-100.008738 92.234681c-10.55438 11.263531-28.241204 11.837606-39.505759 1.288343-11.266601-10.556427-11.842723-28.243251-1.288343-39.508829l127.788431-117.855198c10.553357-11.265578 28.241204-11.839653 39.505759-1.284249 3.405563 3.191692 5.498224 7.104815 6.936993 11.225669l193.732329 335.552336C726.114542 469.966043 721.5332 487.058326 708.164728 494.780195z"  horiz-adv-x="1024" />

    
    <glyph glyph-name="xiazai" unicode="&#58909;" d="M957.624267 186.035412c-1.270946 23.396873-20.243043 42.10905-43.956118 42.10905-23.713075 0-42.685171-18.712177-43.956118-42.10905l-0.467651 0 0-194.543811c0-23.860431-16.116049-43.296085-35.920094-43.296085L190.676737-51.804485c-19.803022 0-35.922141 19.435655-35.922141 43.296085L154.754596 186.035412l-0.467651 0c-1.270946 23.396873-20.240997 42.10905-43.956118 42.10905-23.713075 0-42.685171-18.712177-43.956118-42.10905l-0.467651 0 0-194.543811c0-72.882937 55.963593-132.142599 124.768655-132.142599l642.647549 0c68.803016 0 124.766608 59.260685 124.766608 132.142599L958.089871 186.035412 957.624267 186.035412zM497.875305 6.895429c3.521197-4.102435 8.695033-6.497994 14.121626-6.497994s10.600429 2.39556 14.121626 6.497994l250.309906 292.856931c4.719488 5.517667 5.789866 13.286608 2.758834 19.857257-3.031033 6.607488-9.620102 10.818393-16.880459 10.818393L620.434641 330.42801 620.434641 706.891104c0 20.547988-16.645099 37.174668-37.174668 37.174668l-142.526087 0c-20.529569 0-37.174668-16.626679-37.174668-37.174668l0-376.463094L261.688048 330.42801c-7.260357 0-13.849426-4.210905-16.880459-10.818393-3.031033-6.570649-1.960655-14.33959 2.758834-19.857257L497.875305 6.895429z"  horiz-adv-x="1024" />

    
    <glyph glyph-name="iconfontdanxuan" unicode="&#58972;" d="M512 156.444444C637.675463 156.444444 739.555556 258.324537 739.555556 384 739.555556 509.675463 637.675463 611.555556 512 611.555556 386.324537 611.555556 284.444444 509.675463 284.444444 384 284.444444 258.324537 386.324537 156.444444 512 156.444444ZM512-99.555556C779.060361-99.555556 995.555556 116.939639 995.555556 384 995.555556 651.060359 779.060361 867.555556 512 867.555556 244.939639 867.555556 28.444444 651.060359 28.444444 384 28.444444 116.939639 244.939639-99.555556 512-99.555556L512-99.555556ZM512-42.666667C276.358508-42.666667 85.333333 148.358508 85.333333 384 85.333333 619.641493 276.358508 810.666667 512 810.666667 747.641492 810.666667 938.666667 619.641493 938.666667 384 938.666667 148.358508 747.641492-42.666667 512-42.666667L512-42.666667Z"  horiz-adv-x="1024" />

    
    <glyph glyph-name="fapiaoduifuicon" unicode="&#58927;" d="M854.659709 831.926706 169.962461 831.926706c-57.6807 0-104.606453-40.177048-104.606453-89.541339l0-781.444708c0-13.483082 12.769838-24.417109 28.52773-24.417109 1.598404 0 3.155876 0.140193 4.678556 0.355087 1.601474-0.234337 3.222391-0.355087 4.849448-0.355087 6.175653 0 12.399401 1.716084 17.635659 5.230118l117.460202 79.189573 117.459179-79.189573c10.352789-6.962575 24.935925-6.962575 35.30918 0l121.878838 82.163301 118.129444-79.636758c10.363022-6.963599 24.942065-6.963599 35.308157 0l117.366058 79.128175 119.613238-80.635505c5.601578-3.777023 12.316513-5.453199 18.904559-5.202489 2.616594-0.675382 5.384637-1.048889 8.258081-1.048889 15.761985 0 28.529777 10.937097 28.529777 24.419156L959.264115 742.38639C959.268208 791.752728 912.342456 831.926706 854.659709 831.926706zM902.211724 5.86994l-100.596116 67.806315c-10.363022 6.964622-24.946159 6.964622-35.30918 0l-117.368104-79.124082-118.127398 79.635735c-10.365068 6.963599-24.944112 6.963599-35.308157 0L373.622908-7.977439l-117.460202 79.190597c-10.363022 6.963599-24.944112 6.963599-35.308157 0l-98.44001-66.358337L122.414539 742.38639c0 22.448268 21.331841 40.698934 47.547923 40.698934l684.698271 0c26.219151 0 47.548946-18.251689 47.548946-40.698934l0-736.51645L902.211724 5.86994zM755.042897 554.266895 256.5137 554.266895c-9.584286 0-17.35118-6.649444-17.35118-14.852266l0-23.992437c0-8.202822 7.768941-14.852266 17.35118-14.852266l498.528174 0c9.582239 0 17.350157 6.649444 17.350157 14.852266l0 23.992437C772.393054 547.617451 764.626159 554.266895 755.042897 554.266895zM256.5137 643.763209l359.047446 0c9.581216 0 17.350157 6.649444 17.350157 14.852266l0 23.992437c0 8.203846-7.768941 14.852266-17.350157 14.852266l-359.047446 0c-9.584286 0-17.35118-6.649444-17.35118-14.852266l0-23.992437C239.16252 650.412652 246.93146 643.763209 256.5137 643.763209zM755.042897 411.072589 256.5137 411.072589c-9.584286 0-17.35118-6.649444-17.35118-14.852266l0-23.99346c0-8.202822 7.768941-14.852266 17.35118-14.852266l498.528174 0c9.582239 0 17.350157 6.649444 17.350157 14.852266l0 23.99346C772.393054 404.423145 764.626159 411.072589 755.042897 411.072589zM755.042897 267.878283 256.5137 267.878283c-9.584286 0-17.35118-6.64842-17.35118-14.853289l0-23.991414c0-8.202822 7.768941-14.851243 17.35118-14.851243l498.528174 0c9.582239 0 17.350157 6.64842 17.350157 14.851243l0 23.991414C772.393054 261.229862 764.626159 267.878283 755.042897 267.878283z"  horiz-adv-x="1024" />

    
    <glyph glyph-name="fapiaogenzongicon" unicode="&#58929;" d="M854.140892 833.461665 168.26889 833.461665c-57.778938 0-104.785531-40.200584-104.785531-89.591481l0-781.886777c0-13.491269 12.792351-24.432459 28.576849-24.432459 1.600451 0 3.160993 0.140193 4.686742 0.356111 1.604544-0.234337 3.228531-0.356111 4.858658-0.356111 6.185886 0 12.420891 1.717108 17.666358 5.233188l117.661793 79.235622 117.659747-79.235622c10.371208-6.966669 24.978904-6.966669 35.369555 0l122.087593 82.20935 118.332059-79.68076c10.382465-6.967692 24.986067-6.967692 35.369555 0l117.567649 79.172177 119.817899-80.682577c5.610788-3.777023 12.339026-5.453199 18.937305-5.204535 2.62171-0.675382 5.393847-1.048889 8.272407-1.048889 15.790638 0 28.578896 10.943236 28.578896 24.434505L958.926424 743.871207C958.92847 793.265174 911.921877 833.461665 854.140892 833.461665zM237.586628 684.05896c0 8.207939 7.78122 14.860453 17.380856 14.860453L614.631984 698.919413c9.598612 0 17.379832-6.653537 17.379832-14.860453l0-24.006763c0-8.207939-7.78122-14.859429-17.379832-14.859429L254.967484 645.192767c-9.600659 0-17.380856 6.653537-17.380856 14.859429L237.586628 684.05896zM771.731998 230.225731c0-8.207939-7.78122-14.859429-17.379832-14.859429L254.967484 215.366302c-9.600659 0-17.380856 6.652514-17.380856 14.859429l0 24.006763c0 8.207939 7.78122 14.860453 17.380856 14.860453l499.383658 0c9.599635 0 17.380856-6.652514 17.380856-14.860453L771.731998 230.225731 771.731998 230.225731zM771.731998 373.502925c0-8.208962-7.78122-14.862499-17.379832-14.862499l-499.384681 0.002047c-9.600659 0-17.380856 6.65149-17.380856 14.860453l0 24.00574c0 8.207939 7.78122 14.859429 17.380856 14.859429l499.383658 0c9.599635 0 17.380856-6.653537 17.380856-14.859429L771.731998 373.502925 771.731998 373.502925zM771.731998 516.777049c0-8.207939-7.78122-14.860453-17.379832-14.860453L254.967484 501.916597c-9.600659 0-17.380856 6.653537-17.380856 14.860453l0 24.006763c0 8.207939 7.78122 14.859429 17.380856 14.859429l499.383658 0c9.599635 0 17.380856-6.653537 17.380856-14.859429L771.731998 516.777049 771.731998 516.777049z"  horiz-adv-x="1024" />

    
    <glyph glyph-name="tixing" unicode="&#58959;" d="M615.338065 102.692103c-0.102331-56.558134-45.478797-102.374622-102.31527-102.374622-56.444547 0-102.21294 45.627177-102.31527 102.374622L615.338065 102.692103 615.338065 102.692103zM581.232293 699.474045c0 37.594223-30.538527 68.209498-68.209498 68.209498-37.595246 0-68.210521-30.538527-68.210521-68.209498 0-3.838422 0.318248-7.603165 0.930185-11.270694-94.189196-32.828686-171.455977-133.645836-171.455977-252.925477l0-93.909833c0 0 0-135.24424-33.227776-136.421043-19.808138 0-34.983769-15.269775-34.983769-34.104749 0-18.96698 15.266705-34.104749 34.100656-34.104749l272.847202 0 238.737336 0 34.109866 0c18.925025 0 34.099632 15.269775 34.099632 34.104749 0 18.96698-15.267728 34.104749-34.099632 34.104749-34.109866 0-34.109866 135.472438-34.109866 135.472438l0 94.845135c0 119.433136-72.249511 220.294288-171.441651 253.024737C580.920184 691.929208 581.232293 695.665299 581.232293 699.474045z"  horiz-adv-x="1024" />

    
    <glyph glyph-name="danxuan1" unicode="&#59033;" d="M509.339-119.711c-68.253 0-134.459 13.405-196.777 39.703-60.169 25.48-114.301 61.909-160.656 108.366-46.457 46.457-82.886 100.486-108.366 160.656-26.298 62.318-39.703 128.524-39.703 196.777s13.405 134.459 39.703 196.777c25.48 60.169 61.909 114.301 108.366 160.656 46.457 46.457 100.486 82.886 160.656 108.366 62.318 26.401 128.524 39.703 196.777 39.703s134.459-13.405 196.777-39.703c60.169-25.48 114.301-61.909 160.656-108.366 46.457-46.457 82.886-100.486 108.366-160.656 26.401-62.318 39.703-128.524 39.703-196.777s-13.303-134.459-39.703-196.777c-25.48-60.169-61.909-114.301-108.366-160.656-46.457-46.457-100.486-82.886-160.656-108.366-62.318-26.298-128.524-39.703-196.777-39.703zM509.339 829.896c-59.964 0-118.087-11.768-172.833-34.894-52.904-22.41-100.384-54.439-141.213-95.165-40.829-40.829-72.858-88.309-95.165-141.213-23.126-54.643-34.894-112.868-34.894-172.833s11.768-118.087 34.894-172.833c22.41-52.904 54.439-100.384 95.165-141.213 40.829-40.829 88.309-72.858 141.213-95.165 54.746-23.126 112.868-34.894 172.833-34.894s118.087 11.768 172.833 34.894c52.904 22.41 100.384 54.439 141.213 95.165 40.829 40.829 72.858 88.309 95.165 141.213 23.126 54.746 34.894 112.868 34.894 172.833s-11.768 118.087-34.894 172.833c-22.41 52.904-54.439 100.384-95.165 141.213-40.829 40.829-88.309 72.858-141.213 95.165-54.643 23.126-112.766 34.894-172.833 34.894z"  horiz-adv-x="1024" />

    
    <glyph glyph-name="cha" unicode="&#58928;" d="M311.861774 145.488815c-16.181541-16.181541-38.532595-20.027126-49.827849-8.652054-11.375072 11.375072-7.53051 33.646308 8.652054 49.827849l438.998359 438.998359c16.181541 16.182564 38.452777 20.027126 49.827849 8.652054 11.375072-11.375072 7.53051-33.645284-8.652054-49.827849L311.861774 145.488815zM709.667965 145.488815l-438.998359 438.998359c-16.182564 16.182564-20.027126 38.452777-8.652054 49.827849 11.375072 11.375072 33.646308 7.53051 49.827849-8.652054l438.998359-438.998359c16.182564-16.181541 20.027126-38.452777 8.652054-49.827849C748.20056 125.461689 725.850529 129.307274 709.667965 145.488815"  horiz-adv-x="1024" />

    
    <glyph glyph-name="kaxinxi" unicode="&#58896;" d="M32.020 96.012c0-35.343 28.653-63.997 63.997-63.997h831.965c35.343 0 63.997 28.654 63.997 63.997l0 415.974h-959.96v-415.974zM629.214 416.179h119.167c27.405 0 48.153-7.062 62.247-21.156 14.077-14.109 21.124-33.866 21.124-59.271s-7.047-45.248-21.124-59.465c-14.094-14.249-34.842-21.219-62.247-20.97h-82.997v-111.307h-36.17v272.169zM494.063 416.179h36.17v-272.169h-36.17v272.169zM230.997 416.179l77.669-235.952h0.749l78.436 235.952h37.686l-96.701-272.169h-41.108l-95.559 272.169 38.828-0zM927.983 735.985h-831.965c-35.344 0-63.997-28.654-63.997-63.997v-96.004h959.96v96.004c-0 35.343-28.654 63.997-63.997 63.997zM288.010 615.991v0c-0.001-4.421-3.579-8.007-8.001-8.007l-143.993 0c-4.42 0-8 3.586-8 8.007v15.999c0 4.421 3.578 8 8 8h143.994c4.421 0 8-3.578 8-8l0-15.999zM781.301 298.38c9.532 8.656 14.28 21.094 14.28 37.372 0 16.249-4.75 28.654-14.28 37.154-9.516 8.523-24.546 12.774-45.108 12.774h-70.808v-99.862h70.808c20.564-0.252 35.593 3.936 45.108 12.562z"  horiz-adv-x="1024" />

    
    <glyph glyph-name="renwu" unicode="&#58998;" d="M512 407.272727c128 0 232.727273 104.727273 232.727273 232.727273S640 872.727273 512 872.727273 279.272727 768 279.272727 640s104.727273-232.727273 232.727273-232.727273z m416.581818-425.890909c-16.290909 183.854545-153.6 335.127273-332.8 370.036364l-48.872727-48.872727c13.963636-72.145455 34.909091-188.509091 34.909091-221.09091 0-23.272727-48.872727-93.090909-69.818182-93.090909-20.945455 0-69.818182 69.818182-69.818182 93.090909 0 32.581818 20.945455 148.945455 34.909091 221.09091l-48.872727 48.872727c-179.2-37.236364-316.509091-186.181818-332.8-370.036364-2.327273-27.927273 2.327273-39.563636 2.327273-39.563636 9.309091-27.927273 34.909091-46.545455 65.163636-46.545455h698.181818c30.254545 0 55.854545 18.618182 65.163636 46.545455 0 0 4.654545 11.636364 2.327273 39.563636z"  horiz-adv-x="1024" />

    
    <glyph glyph-name="renwu1" unicode="&#59006;" d="M642.327273 363.054545c69.818182 44.218182 116.363636 121.018182 116.363636 211.781819 0 137.309091-111.709091 249.018182-249.018182 249.018181S262.981818 712.145455 262.981818 574.836364c0-88.436364 46.545455-167.563636 116.363637-211.781819-167.563636-55.854545-290.909091-214.109091-290.909091-402.618181 0-16.290909 13.963636-30.254545 30.254545-30.254546 16.290909 0 30.254545 13.963636 30.254546 30.254546 0 174.545455 121.018182 318.836364 283.927272 356.072727-13.963636-60.509091-37.236364-174.545455-37.236363-195.490909 0-44.218182 72.145455-132.654545 116.363636-132.654546s116.363636 102.4 116.363636 132.654546c0 20.945455-23.272727 134.981818-34.909091 195.490909 162.909091-37.236364 283.927273-181.527273 283.927273-356.072727 0-16.290909 13.963636-30.254545 30.254546-30.254546 16.290909 0 30.254545 13.963636 30.254545 30.254546-2.327273 188.509091-125.672727 346.763636-295.563636 402.618181zM512 46.545455c-13.963636 0-58.181818 58.181818-58.181818 72.145454 0 13.963636 30.254545 204.8 30.254545 204.8h58.181818s30.254545-190.836364 30.254546-204.8c-2.327273-13.963636-46.545455-72.145455-60.509091-72.145454zM512 384c-104.727273 0-190.836364 86.109091-190.836364 190.836364 0 104.727273 86.109091 190.836364 190.836364 190.836363 104.727273 0 190.836364-86.109091 190.836364-190.836363 0-104.727273-86.109091-190.836364-190.836364-190.836364z"  horiz-adv-x="1024" />

    
    <glyph glyph-name="qingdan" unicode="&#59640;" d="M755.3024 785.2032H271.1552c-65.9456 0-125.44-46.8992-125.44-112.8448v-520.9088c0-65.9456 59.5968-125.44 125.44-125.44h484.1472c65.9456 0 112.8448 59.5968 112.8448 125.44V672.3584c0 65.9456-46.8992 112.8448-112.8448 112.8448z m-84.8896-50.7904l-45.1584-71.2704c-1.8432-2.9696-5.12-4.7104-8.6016-4.7104H417.28c-3.3792 0-6.656 1.7408-8.4992 4.608l-47.616 71.4752h309.248v-0.1024z m146.944-584.192c0-35.5328-26.624-74.752-62.0544-74.752H271.1552c-41.1648 0-74.752 33.6896-74.752 74.752V672.3584c0 35.5328 39.3216 62.0544 74.752 62.0544h35.5328L372.736 631.296c9.4208-14.7456 25.7024-23.552 43.1104-23.552h204.288c17.8176 0 34.4064 9.3184 43.7248 24.576l62.3616 102.1952h30.4128c34.2016 0 60.8256-26.624 60.8256-62.0544v-522.24h-0.1024zM718.5408 442.9824H304.128c-12.6976 0-24.064-12.6976-24.064-25.3952S290.2016 392.192 304.128 392.192h414.4128c12.6976 0 24.064 12.6976 24.064 25.3952-1.2288 12.6976-11.3664 25.3952-24.064 25.3952zM534.7328 290.9184c12.6976 0 22.8352 12.6976 22.8352 25.3952s-10.1376 25.3952-22.8352 25.3952H302.7968c-12.6976 0-22.8352-12.6976-22.8352-25.3952s10.1376-25.3952 22.8352-25.3952h231.936zM671.6416 252.8256H304.128c-12.6976 0-24.064-10.1376-24.064-25.3952s10.1376-25.3952 24.064-25.3952h368.8448c12.6976 0 24.064 10.1376 24.064 25.3952-1.3312 15.2576-11.4688 25.3952-25.3952 25.3952z"  horiz-adv-x="1024" />

    
    <glyph glyph-name="zhifubao" unicode="&#59051;" d="M283.486316 104.286316c-149.557895 0-173.271579 94.585263-165.456842 134.197895 8.084211 39.073684 51.2 90.543158 134.467368 90.543157 95.663158 0 181.355789-24.522105 284.025263-74.64421-72.218947-94.046316-160.875789-150.096842-253.035789-150.096842zM1024 194.829474V699.014737C1024 807.882105 935.882105 896 827.014737 896H196.985263C88.117895 896 0 807.882105 0 699.014737v-630.029474C0-39.882105 88.117895-128 196.985263-128h630.029474c97.010526 0 177.583158 70.063158 194.021052 162.223158-52.277895 22.366316-278.635789 120.185263-396.395789 176.505263-89.734737-108.597895-183.781053-173.810526-325.524211-173.810526-141.473684 0-236.058947 87.04-224.741052 194.021052 7.545263 70.063158 55.511579 184.589474 264.353684 164.917895 109.945263-10.24 160.336842-30.989474 250.071579-60.631579 23.174737 42.576842 42.576842 89.465263 57.128421 139.317895H248.185263v39.612631h196.71579v70.602106H204.8V628.143158h240.101053V730.273684s2.155789 16.168421 19.941052 16.168421h98.357895v-118.298947h256v-43.385263h-256v-70.602106h208.842105c-19.132632-78.147368-48.235789-150.096842-84.88421-212.88421 60.631579-21.827368 336.842105-106.442105 336.842105-106.442105z"  horiz-adv-x="1024" />

    
    <glyph glyph-name="iconfontqian" unicode="&#58890;" d="M512 861.867c-266.24 0-477.867-211.627-477.867-477.867s211.627-477.867 477.867-477.867c266.24 0 477.867 211.627 477.867 477.867 0 266.24-211.627 477.867-477.867 477.867zM709.973 390.827c0-6.827 0-13.653 0-27.307 0-13.653 0-20.48 0-27.307h-157.013v-75.093h157.013c0-6.827 0-13.653 0-27.307 0-13.653 0-20.48 0-27.307h-157.013v-129.707c-6.827 0-13.653 0-20.48 0s-13.653 0-20.48 0c-6.827 0-13.653 0-20.48 0s-13.653 0-20.48 0v129.707h-150.187c0 6.827 0 13.653 0 27.307 0 6.827 0 6.827 0 13.653 0 6.827 0 6.827 0 13.653h150.187v75.093h-150.187c0 6.827 0 13.653 0 27.307 0 6.827 0 6.827 0 13.653 0 6.827 0 6.827 0 13.653h116.053l-150.187 266.24c6.827 0 13.653 0 20.48 0s13.653 0 27.307 0c6.827 0 13.653 0 20.48 0s13.653 0 20.48 0l136.533-245.76 129.707 245.76c6.827 0 13.653 0 20.48 0s13.653 0 20.48 0 13.653 0 20.48 0 13.653 0 20.48 0l-150.187-266.24h136.533z"  horiz-adv-x="1024" />

    
    <glyph glyph-name="qian" unicode="&#58914;" d="M512 832C265 832 64 631.1 64 384s201-448 448-448c246.9 0 448 200.9 448 448 0 247.2-200.9 448-448 448z m0-847.9c-220.5 0-400 179.4-400 400C112 604.6 291.4 784 512 784c220.5 0 400-179.3 400-399.9-0.1-220.6-179.4-400-400-400z m108.4 634.3l-71.2-131.1c-19-35.5-30.5-59.2-34.8-70.9h-1.3c-12.5 28.5-47.8 95.7-106 202h-67l124.5-213.8h-102v-47.3h119.5v-65.1H362.6v-47.8h119.6v-94.8h59.4v94.9h115.3v47.8H541.7v65.1H657v47.3h-98.9l125.7 213.7h-63.4z"  horiz-adv-x="1024" />

    
    <glyph glyph-name="qiapian" unicode="&#58905;" d="M1004.6 573.5v56.9c0 62.7-50.9 113.6-113.6 113.6H133c-62.7 0-113.6-50.9-113.6-113.6v-56.9h985.2zM19.4 478.7v-341.1C19.4 74.9 70.2 24 133 24h758c62.7 0 113.6 50.9 113.6 113.6V478.7H19.4z m890.5-322.3c0-10.4-8.4-18.7-18.7-18.7H777.1c-10.4 0-18.7 8.4-18.7 18.7v76.2c0 10.4 8.4 18.7 18.7 18.7h114.1c10.4 0 18.7-8.4 18.7-18.7v-76.2z"  horiz-adv-x="1024" />

    
    <glyph glyph-name="jia" unicode="&#58936;" d="M0 768C0 838.4 57.6 896 128 896h768c70.4 0 128-57.6 128-128v-768c0-70.4-57.6-128-128-128H128c-70.4 0-128 57.6-128 128V768z m64 0v-768c0-32 25.6-64 64-64h768c32 0 64 25.6 64 64V768c0 32-25.6 64-64 64H128c-38.4 0-64-25.6-64-64zM256 384c0 19.2 12.8 32 32 32h448c19.2 0 32-12.8 32-32s-12.8-32-32-32h-448c-19.2 0-32 12.8-32 32zM512 640c19.2 0 32-12.8 32-32v-448c0-19.2-12.8-32-32-32s-32 12.8-32 32v448c0 19.2 12.8 32 32 32z"  horiz-adv-x="1024" />

    
    <glyph glyph-name="rili" unicode="&#58919;" d="M714.88 109.376h35.52c20.736 0 37.376 12.352 37.376 27.648 0 15.104-16.768 27.52-37.376 27.52h-35.52c-20.608 0-37.376-12.352-37.376-27.52 0-15.296 16.768-27.648 37.376-27.648zM714.88 274.88h35.52c20.736 0 37.376 12.352 37.376 27.648s-16.768 27.584-37.376 27.584h-35.52c-20.608 0-37.376-12.352-37.376-27.584s16.768-27.648 37.376-27.648zM494.144 274.88h35.648c20.608 0 37.312 12.352 37.312 27.648s-16.704 27.584-37.312 27.584h-35.648c-20.608 0-37.312-12.352-37.312-27.584s16.704-27.648 37.312-27.648zM273.472 274.88h35.648c20.608 0 37.312 12.352 37.312 27.648s-16.704 27.584-37.312 27.584h-35.648c-20.608 0-37.312-12.352-37.312-27.584s16.704-27.648 37.312-27.648zM494.144 109.376h35.648c20.608 0 37.312 12.352 37.312 27.648 0 15.104-16.704 27.52-37.312 27.52h-35.648c-20.608 0-37.312-12.352-37.312-27.52 0-15.296 16.704-27.648 37.312-27.648zM273.472 109.376h35.648c20.608 0 37.312 12.352 37.312 27.648 0 15.104-16.704 27.52-37.312 27.52h-35.648c-20.608 0-37.312-12.352-37.312-27.52 0-15.296 16.704-27.648 37.312-27.648zM790.848 716.16h-55.744v78.528l0.128 2.304c0 0.057 0.001 0.124 0.001 0.192 0 14.951-12.121 27.073-27.073 27.073-14.884 0-26.963-12.012-27.072-26.87v-81.226h-335.552v78.528c0.128 0.704 0.128 1.472 0.128 2.24-0.612 14.466-12.489 25.962-27.049 25.962-14.426 0-26.217-11.284-27.027-25.506l-0.003-81.223h-58.432c-89.6 0-162.496-62.848-162.496-181.44v-426.624c-0.001-0.16-0.001-0.35-0.001-0.54 0-84.581 64.091-154.192 146.358-162.918l573.835-0.83c89.472 0 162.368 73.6 162.368 164.224v443.968c0.064 90.56-72.832 164.16-162.368 164.16zM898.112 91.904c0-51.136-44.48-92.736-99.008-92.736h-574.144c-54.656 0-99.136 41.6-99.136 92.736v348.48h772.288v-348.48zM898.112 568.192v-72.64h-772.288v72.576c0 45.504 40 92.864 110.336 92.864h55.424v-82.816c0.287-14.732 12.298-26.565 27.072-26.565 14.954 0 27.077 12.123 27.077 27.077 0 0.18-0.002 0.361-0.005 0.539 0 0.741 0 1.509-0.128 2.277v79.552h335.552v-82.816h0.128c1.212-13.939 12.826-24.795 26.976-24.795 14.487 0 26.318 11.381 27.037 25.691l-0.125 2.368v79.552h52.608c54.592 0 115.072-40.32 110.336-92.864z"  horiz-adv-x="1024" />

    
    <glyph glyph-name="chehui" unicode="&#58960;" d="M871.104 32A351.36 351.36 0 0 1 544 256c-10.88 0-21.376-1.536-32-2.496V508.8c10.688 0.96 21.056 3.2 32 3.2a352 352 0 0 0 352-352 348.8 348.8 0 0 0-24.896-128z m-451.328 50.368L145.408 341.76a58.688 58.688 0 0 0 0 86.4l274.368 259.392c25.28 23.872 84.224 25.856 91.456 0v-605.184c-11.264-21.888-66.176-23.872-91.456 0z"  horiz-adv-x="1024" />

    
    <glyph glyph-name="weixin" unicode="&#58881;" d="M692.224 547.84c12.288 0 22.528 0 34.816-2.048C696.32 693.248 540.672 801.792 362.496 801.792 163.84 801.792 0 664.576 0 492.544c0-100.352 55.296-182.272 145.408-243.712L108.544 138.24l126.976 63.488c45.056-8.192 81.92-18.432 126.976-18.432 12.288 0 22.528 0 34.816 2.048-6.144 24.576-10.24 49.152-10.24 75.776-2.048 159.744 133.12 286.72 305.152 286.72z m-194.56 98.304c26.624 0 45.056-18.432 45.056-45.056 0-26.624-18.432-45.056-45.056-45.056-26.624 0-55.296 18.432-55.296 45.056 2.048 28.672 28.672 45.056 55.296 45.056z m-253.952-90.112c-26.624 0-55.296 18.432-55.296 45.056 0 26.624 26.624 45.056 55.296 45.056 26.624 0 45.056-18.432 45.056-45.056 2.048-26.624-16.384-45.056-45.056-45.056zM1024 265.216C1024 410.624 878.592 527.36 716.8 527.36c-172.032 0-309.248-118.784-309.248-262.144 0-145.408 135.168-262.144 309.248-262.144 36.864 0 71.68 8.192 108.544 18.432l100.352-55.296-26.624 90.112c71.68 55.296 124.928 129.024 124.928 208.896z m-407.552 47.104c-18.432 0-36.864 18.432-36.864 36.864s18.432 36.864 36.864 36.864c26.624 0 45.056-18.432 45.056-36.864 0-20.48-18.432-36.864-45.056-36.864z m198.656 0c-18.432 0-36.864 18.432-36.864 36.864s18.432 36.864 36.864 36.864c26.624 0 45.056-18.432 45.056-36.864 0-20.48-18.432-36.864-45.056-36.864z"  horiz-adv-x="1024" />

    
    <glyph glyph-name="qingkong" unicode="&#59043;" d="M987.447353 640.01845a36.513429 36.513429 0 1 1 0 73.065497H36.552647a36.513429 36.513429 0 1 1 0-73.065497h950.894706zM365.714451 127.980391a36.590706 36.590706 0 0 1 73.142775 0v365.713872a36.552068 36.552068 0 1 1-73.142775 0v-365.713872z m219.428323 0a36.667984 36.667984 0 0 1 54.905379-31.683611 36.629345 36.629345 0 0 1 18.276034 31.683611v365.713872a36.590706 36.590706 0 1 1-73.142774 0v-365.713872h-0.038639zM804.571097-18.652905a36.320237 36.320237 0 0 0-36.436152-36.204321H255.865055a36.783899 36.783899 0 0 0-36.436152 36.24296V640.01845H146.286128v-658.671355a109.926674 109.926674 0 0 1 109.578927-109.347095H768.134945a109.463011 109.463011 0 0 1 109.578927 109.347095V640.01845h-73.142775v-658.671355zM292.571677 786.26536c0 20.51707 15.957721 36.513429 36.783899 36.513429h365.288848c20.478431 0 36.822538-16.228191 36.822538-36.513429v-73.220051h73.142774V786.26536A109.656204 109.656204 0 0 1 694.644424 895.998841H329.355576a109.347095 109.347095 0 0 1-109.926673-109.733481v-73.220051h73.142774V786.26536z"  horiz-adv-x="1024" />

    
    <glyph glyph-name="fapiao" unicode="&#58926;" d="M847.9 778.3H176.1a80 80 0 0 1-80-80V535a80 80 0 0 1 80-80h51.13v-456l155.34 113.4 129.42-98L640.85 112l155.91-122.3V455h51.14a80 80 0 0 1 80 80V698.3a80 80 0 0 1-80 80zM743.76 98.64l-102.34 80.29-129.42-98-128.84 97.56-102.92-75.13v486.8h463.52zM874.9 535a27 27 0 0 0-27-27h-51.14v82.16h8.42a26.5 26.5 0 0 1 0 53H218.82a26.5 26.5 0 1 1 0-53h8.42V508H176.1a27 27 0 0 0-27 27V698.3a27 27 0 0 0 27 27h671.8a27 27 0 0 0 27-27zM328.99 476.62l366.03 0 0-53-366.03 0 0 53ZM328.99 347.47l366.03 0 0-53-366.03 0 0 53Z"  horiz-adv-x="1024" />

    
    <glyph glyph-name="xianjin" unicode="&#58918;" d="M364.157103 422.401566c3.884008 12.341123 9.208858 24.306375 15.97455 35.9584a184.177169 184.177169 0 0 0 28.879481 38.589502c60.32742 60.390065 150.098128 69.536278 210.738774 25.684571 5.888658-4.25988 11.902606-8.457115 17.102166-13.71932 3.445491-3.445491 5.826012-7.392145 8.832987-11.025572 49.301848-60.578001 41.721767-154.420653-20.610303-216.815367-66.278723-66.278723-168.202618-71.540927-227.903585-11.839961-39.905053 39.905053-50.053591 98.66634-33.01407 153.167747z m10.148538-233.479016a57.884253 57.884253 0 0 0-83.067662-51.306497 56.130185 56.130185 0 0 0-27.56393 27.68922h-0.062646l-0.250581 0.93968a55.190505 55.190505 0 0 0-2.756393 7.204209l-0.187936 0.689098a152.040132 152.040132 0 0 0-1.503487 6.890983c0 0.626453-0.125291 1.252906-0.187936 1.754068a50.366818 50.366818 0 0 0-0.375871 7.517435v1.378197a75.550226 75.550226 0 0 0 0.751743 8.143888 69.536278 69.536278 0 0 0 1.816714 7.3295l0.563807 1.628778c0.751744 2.067295 1.691423 4.25988 2.693748 6.38982l0.375872 1.06497a53.123211 53.123211 0 0 0 3.884008 6.139239l0.250581 0.563807a82.879726 82.879726 0 0 0 6.452466 7.768017 58.260125 58.260125 0 0 0 86.137281-4.385171c0.438517-0.626453 0.814389-1.252906 1.252906-1.691423a28.440964 28.440964 0 0 0 2.255231-3.132264l1.19026-1.879359c0.563808-1.127615 1.190261-2.004649 1.754068-3.06962l1.002325-2.12994c0.438517-1.06497 1.002325-2.004649 1.378197-3.132265l0.814389-2.12994c0.313226-1.127615 0.814389-2.12994 1.06497-3.19491l0.563807-2.317876 0.751744-3.19491 0.375872-2.443166c0.062645-1.06497 0.313226-2.067295 0.375871-3.132265l0.125291-2.568457 0.062645-3.06962 0.062646-0.375871v0.062645z m284.785513 405.565643a51.995595 51.995595 0 0 0 1.315551 8.770341l0.438517 1.440842a52.434112 52.434112 0 0 0 3.508137 9.835311c1.315551 2.819038 2.819038 5.575431 4.510461 8.206534l0.626453 0.814389a54.000245 54.000245 0 0 0 12.341123 12.904931l1.503487 1.127615a57.821608 57.821608 0 0 0 5.888658 3.696073l0.563808 0.375871a46.73339 46.73339 0 0 0 8.394469 3.570782c2.004649 0.689098 4.071944 1.252906 6.201884 1.754068l1.002325 0.250582c2.443167 0.375872 4.823688 0.751744 7.3295 0.939679l1.440842 0.062645a108.626942 108.626942 0 0 0 7.642726-0.062645c2.505812-0.187936 4.886333-0.563808 7.266854-1.06497l1.315551-0.250581c2.004649-0.563808 4.071944-1.127615 6.139239-1.879359l0.877034-0.250581v-0.062645a58.385415 58.385415 0 0 0 26.37367-19.98385h0.062645l0.250581-0.375872a58.260125 58.260125 0 0 0 4.948978-8.206533l0.313227-0.751744a70.03744 70.03744 0 0 0 3.570782-9.146213 60.139484 60.139484 0 0 0 1.942004-19.482687l-0.062645-0.814389c-0.313226-3.132265-0.814389-6.013948-1.503488-9.020922l-0.313226-1.315551a41.721767 41.721767 0 0 0-2.944329-8.519761l-0.626453-1.252906c-0.563808-1.252906-1.315551-2.443167-2.067295-3.696072-0.751744-1.440842-1.440842-2.881684-2.380521-4.322525l-0.689098-1.002325a63.083813 63.083813 0 0 0-6.201884-7.45479c-0.125291 0-0.125291-0.125291-0.125291-0.125291a55.503732 55.503732 0 0 0-3.570782-3.132265l-0.939679-0.877034c-1.002325-0.814389-2.067295-1.503487-3.06962-2.25523l-1.691423-1.190261c-0.939679-0.751744-2.067295-1.315551-3.132264-1.942004l-1.942005-1.127615a66.028141 66.028141 0 0 0-3.069619-1.378197l-2.067295-0.877034-3.257555-1.127615-2.255231-0.689099a25.371345 25.371345 0 0 0-3.132265-0.751743l-2.380521-0.563808c-1.127615-0.250581-2.12994-0.313226-3.132265-0.438517l-2.568457-0.313226-3.069619-0.125291h-2.631103l-1.127615-0.062645c-0.814389 0-1.440842 0.125291-2.255231 0.187936a20.23443 20.23443 0 0 0-1.942004 0.12529l-3.508136 0.501163c-0.751744 0.062645-1.315551 0.250581-1.942004 0.375871a16.788939 16.788939 0 0 0-3.508137 0.814389 25.371345 25.371345 0 0 0-5.32485 1.754068l-1.754068 0.626453-3.382846 1.566133-1.628778 0.814389c-0.939679 0.438517-1.754068 1.002325-2.631102 1.566132l-0.751744 0.438517a31.510584 31.510584 0 0 0-4.761042 3.382846c-0.438517 0.313226-1.002325 0.563808-1.315552 0.939679a42.34822 42.34822 0 0 0-4.25988 3.946654 49.928301 49.928301 0 0 0-4.573106 5.074269c-0.062645 0.187936-0.313226 0.375872-0.501163 0.563808l-0.501162 0.877034a57.195155 57.195155 0 0 0-5.011624 7.830662c-0.125291 0.313226-0.250581 0.626453-0.501162 0.939679a58.823932 58.823932 0 0 0-3.382846 8.51976l-0.187936 0.626453a62.269424 62.269424 0 0 0-1.879359 9.146213c-0.062645 0.375872-0.187936 0.814389-0.187936 1.252906a60.891227 60.891227 0 0 0-0.313226 8.958278c0.187936 0.313226 0.187936 0.877034 0.187936 1.315551zM425.361556-13.60969a5.638077 5.638077 0 0 1 3.821363-2.756393 5.826012 5.826012 0 0 1 4.385171 1.378196l485.751621 485.814267a5.136914 5.136914 0 0 1 1.440842 4.447816 5.763367 5.763367 0 0 1-2.819038 3.821363 40.21828 40.21828 0 0 0-10.085893 7.016273c-17.290102 17.227456-15.536033 47.109262 3.884008 66.529303a56.693992 56.693992 0 0 0 9.960602 7.705372 5.262205 5.262205 0 0 1 2.380522 3.821363 4.948978 4.948978 0 0 1-1.440842 4.25988l-2.819038 2.819038-24.995473 24.932828-189.62731 189.689955c-1.127615 1.06497-2.693748 1.628778-4.197235 1.440841s-2.944329-1.06497-3.821363-2.380521a64.963171 64.963171 0 0 0-7.768016-10.085892c-19.357396-19.420042-49.113912-21.111465-66.466659-3.821363a37.461887 37.461887 0 0 0-6.201884 8.394469 5.074269 5.074269 0 0 1-3.884008 2.505812 5.011624 5.011624 0 0 1-4.322526-1.503487L123.849749 295.858069a5.011624 5.011624 0 0 1-1.503487-4.25988 5.450141 5.450141 0 0 1 2.568457-3.821363 36.647498 36.647498 0 0 0 8.39447-6.264529c17.290102-17.227456 15.598679-47.046617-3.884009-66.466659a50.492108 50.492108 0 0 0-8.081243-6.703047 5.011624 5.011624 0 0 1-2.192585-3.884008 5.074269 5.074269 0 0 1 1.440842-4.009299l216.627432-216.627432a4.948978 4.948978 0 0 1 4.071944-1.440841 5.450141 5.450141 0 0 1 3.821363 2.192585c18.355072 27.062768 53.687018 31.385293 73.10706 11.965251a39.028019 39.028019 0 0 0 7.141563-10.148537z m749.112444 134.75003l-707.265386-189.439373 43.789061 43.789061 596.069987 159.682858a4.823688 4.823688 0 0 1 3.445491 3.132265 5.074269 5.074269 0 0 1-0.438517 4.635752 38.21363 38.21363 0 0 0-5.262205 11.213508c-6.38982 23.554631 10.023247 48.487459 36.522207 55.629022a52.684694 52.684694 0 0 0 12.52906 1.691423 5.387495 5.387495 0 0 1 4.009298 2.067295 5.136914 5.136914 0 0 1 0.814389 4.447816L1079.065215 515.116603a5.19956 5.19956 0 0 1-7.45479 3.194911 51.995595 51.995595 0 0 0-38.714793-4.948979c4.009299 20.672948-1.879359 42.912027-17.916555 58.761287l-19.545332 19.607978 49.239203 13.218157a41.471186 41.471186 0 0 0 50.680044-29.255353l108.188425-403.99951a41.220604 41.220604 0 0 0-29.067417-50.554754z m-292.992047 188.061177c21.863208-81.438884-33.891105-167.075003-124.225621-191.318732a181.859293 181.859293 0 0 0-101.923896 1.879359l60.828582 60.765936c3.884008 0.501162 7.705371 1.002325 11.58938 1.816714l6.577756-24.36902 25.371344 6.765692-7.078918 26.49896c28.002447 12.65435 38.714793 36.146335 33.014071 58.761287l85.636119 85.636119c4.25988-8.269179 7.642726-17.03952 10.211183-26.436315z m166.135323 45.54313a50.742689 50.742689 0 0 0 1.566133-8.707696l0.062645 0.062645v-0.563807c0.250581-3.132265 0.375872-6.38982 0.250581-9.584731l-0.062645-0.751743a92.715037 92.715037 0 0 0-1.566132-9.58473l-0.062646-0.062646a56.819283 56.819283 0 0 0-7.955952-17.916554l-0.501163-0.751744a60.014193 60.014193 0 0 0-5.700721-6.953628l-1.002325-0.939679a42.160284 42.160284 0 0 0-7.955953-6.703047 48.612749 48.612749 0 0 0-7.830662-4.635751l-1.127615-0.563808a60.139484 60.139484 0 0 0-9.083568-3.320201l-0.187936-0.12529a72.856479 72.856479 0 0 0-9.647375-1.691423l-2.067295-0.187936-3.570782-0.062646-2.317876 0.062646-3.257555 0.313226a29.255353 29.255353 0 0 0-2.443167 0.250581l-3.257555 0.626453-2.380521 0.501163c-1.06497 0.250581-2.004649 0.626453-3.132265 0.939679-0.751744 0.313226-1.503487 0.438517-2.380521 0.751744-1.002325 0.313226-1.942004 0.751744-2.881684 1.19026l-2.380521 1.127616-2.819038 1.315551a28.315674 28.315674 0 0 0-3.06962 1.816713l-1.942004 1.315552a10.023247 10.023247 0 0 0-1.566132 1.127615c-0.939679 0.814389-1.879359 1.378197-2.756393 2.192585l-1.566133 1.252906c-0.877034 0.751744-1.691423 1.628778-2.568457 2.505812l-1.378196 1.315551a58.385415 58.385415 0 0 0-2.380522 2.881684l-1.19026 1.315551a32.700844 32.700844 0 0 0-2.12994 3.006974l-1.002325 1.503487a48.86333 48.86333 0 0 0-1.942004 3.508137 50.805335 50.805335 0 0 0-3.19491 6.765692 51.369142 51.369142 0 0 0-3.06962 12.090542L933.97871 332.192341v0.939679c-0.438517 3.132265-0.501162 6.26453-0.438517 9.334149 0.125291 0.250581 0.125291 0.563808 0.125291 1.002325a54.689343 54.689343 0 0 0 1.252906 9.083568l0.187936 0.689098a51.494433 51.494433 0 0 0 2.944329 8.770341l0.438517 1.252906a88.141931 88.141931 0 0 0 5.074269 9.208859 65.339043 65.339043 0 0 0 13.468738 13.969901c0.250581 0.313226 0.689098 0.563808 1.06497 0.814388a55.12786 55.12786 0 0 0 8.081243 4.823688l0.93968 0.375872a54.188181 54.188181 0 0 0 17.102165 4.948978c0.626453 0.187936 1.315551 0.250581 1.942005 0.313227 2.380521 0.187936 4.635752 0.250581 6.828337 0.250581h0.689098c2.505812-0.062645 4.948978-0.375872 7.3295-0.751744 0.689098-0.062645 1.252906-0.250581 1.754068-0.375871 2.12994-0.438517 4.197235-1.002325 6.264529-1.503488l1.06497-0.438517c2.317876-0.626453 4.447816-1.628778 6.765692-2.693747l1.315552-0.689099c1.879359-1.002325 3.758718-2.004649 5.575431-3.257555l1.002325-0.626453a44.916677 44.916677 0 0 0 5.700721-4.635752c0.438517-0.250581 0.689098-0.563808 1.06497-0.877034a50.680044 50.680044 0 0 0 5.011624-5.32485c4.886333-6.38982 8.832987-13.71932 11.088217-22.051144zM355.261471-78.635507l-60.014193 59.951548L59.513031 217.112933a41.345895 41.345895 0 0 0 0 58.32277l3.19491 3.257555L630.524899 846.572862a41.533831 41.533831 0 0 0 58.448061 0l295.685794-295.74844a41.220604 41.220604 0 0 0 0-58.32277l-571.011868-571.074514a36.710143 36.710143 0 0 0-5.951303-4.948978c-1.315551-0.939679-2.944329-1.252906-4.447816-1.879359a40.782087 40.782087 0 0 0-47.986296 6.765692z m773.669399 669.92879a65.401688 65.401688 0 0 1-80.123333 46.232228l-78.243974-20.923529L710.27236 876.893185a65.589624 65.589624 0 0 1-92.589747 0L29.192708 288.403279a65.589624 65.589624 0 0 1 0-92.652392l290.486235-290.42359c4.573107-6.640401 10.461764-12.090542 17.03952-16.663648a66.341368 66.341368 0 0 1 48.362168-16.413068c5.575431 0.689098 7.893307 1.002325 10.336474 1.440842 1.691423 0.438517 3.445491 1.127615 5.19956 1.628778 1.628778 0.626453 3.257555 1.002325 4.948978 1.628777a57.821608 57.821608 0 0 1 9.710021 5.136915c3.946654 2.443167 5.888658 4.25988 7.893307 5.951303l771.226233 206.666829c34.830784 9.271504 55.629022 45.355194 46.294873 80.123333l-111.759207 416.465925zM471.719075 486.174477l17.603328-49.615074 6.452465-18.167136-67.719564 24.118439-38.276275-38.276276 120.466903-35.14401 3.570782-3.508137-29.631225-29.69387 20.046494-20.046494 29.443289 29.505934 38.840083-38.777438 33.703169 33.703169-38.777437 38.714792 29.443288 29.505935-20.046494 20.109139-29.69387-29.756515-5.387496 5.387495-20.109139 72.417962-12.967577 46.420164-36.960724-36.898079z m0 0"  horiz-adv-x="1242" />

    


  </font>
</defs>
</svg>
